<svg width="91" height="25" viewBox="0 0 91 25" fill="none" xmlns="http://www.w3.org/2000/svg">
<path d="M16.0987 6.73082H13.3288C13.2223 6.13897 13.024 5.61813 12.734 5.16832C12.444 4.71851 12.0889 4.33677 11.6687 4.02308C11.2485 3.7094 10.7779 3.47266 10.2571 3.31285C9.74219 3.15305 9.19472 3.07315 8.6147 3.07315C7.56712 3.07315 6.62902 3.33653 5.80043 3.86328C4.97775 4.39003 4.3267 5.16241 3.8473 6.1804C3.37382 7.19839 3.13707 8.44129 3.13707 9.90909C3.13707 11.3887 3.37382 12.6375 3.8473 13.6555C4.3267 14.6735 4.98071 15.4429 5.8093 15.9638C6.6379 16.4846 7.57008 16.745 8.60582 16.745C9.17992 16.745 9.72443 16.6681 10.2393 16.5142C10.7602 16.3544 11.2307 16.1206 11.6509 15.8129C12.0711 15.5051 12.4263 15.1293 12.7163 14.6854C13.0122 14.2356 13.2164 13.7206 13.3288 13.1406L16.0987 13.1495C15.9508 14.0432 15.6637 14.8659 15.2376 15.6175C14.8174 16.3633 14.2758 17.0084 13.6129 17.5529C12.956 18.0915 12.2043 18.5088 11.358 18.8047C10.5116 19.1006 9.58831 19.2486 8.58807 19.2486C7.01373 19.2486 5.61103 18.8757 4.37997 18.13C3.14891 17.3783 2.17827 16.3041 1.46804 14.9073C0.763731 13.5105 0.411577 11.8445 0.411577 9.90909C0.411577 7.9678 0.76669 6.30173 1.47692 4.91087C2.18714 3.51409 3.15779 2.44283 4.38885 1.69709C5.61991 0.94543 7.01965 0.569602 8.58807 0.569602C9.55279 0.569602 10.4524 0.708688 11.2869 0.986861C12.1274 1.25911 12.882 1.66158 13.5508 2.19425C14.2196 2.721 14.773 3.36612 15.2109 4.12962C15.6489 4.88719 15.9448 5.75426 16.0987 6.73082ZM23.1366 19.3018C22.2725 19.3018 21.4913 19.142 20.7929 18.8224C20.0945 18.4969 19.5411 18.0264 19.1327 17.4109C18.7303 16.7953 18.529 16.0407 18.529 15.147C18.529 14.3776 18.677 13.7443 18.9729 13.2472C19.2689 12.75 19.6684 12.3564 20.1714 12.0664C20.6745 11.7764 21.2368 11.5574 21.8582 11.4094C22.4797 11.2615 23.113 11.149 23.7581 11.0721C24.5748 10.9774 25.2377 10.9004 25.7467 10.8413C26.2557 10.7762 26.6256 10.6726 26.8564 10.5305C27.0873 10.3885 27.2027 10.1577 27.2027 9.83807V9.77592C27.2027 9.00059 26.9837 8.39986 26.5457 7.97372C26.1137 7.54758 25.4685 7.33452 24.6104 7.33452C23.7166 7.33452 23.0123 7.53279 22.4974 7.92933C21.9884 8.31996 21.6363 8.75497 21.441 9.23438L18.9463 8.66619C19.2422 7.83759 19.6743 7.1688 20.2425 6.6598C20.8166 6.14489 21.4765 5.77202 22.2222 5.54119C22.968 5.30445 23.7522 5.18608 24.5748 5.18608C25.1193 5.18608 25.6964 5.25118 26.306 5.38139C26.9215 5.50568 27.4956 5.73651 28.0283 6.07386C28.5669 6.41122 29.0078 6.89358 29.3511 7.52095C29.6944 8.1424 29.866 8.95028 29.866 9.9446V19H27.2737V17.1357H27.1672C26.9955 17.4789 26.7381 17.8163 26.3948 18.1477C26.0515 18.4792 25.6106 18.7544 25.072 18.9734C24.5334 19.1924 23.8883 19.3018 23.1366 19.3018ZM23.7137 17.1712C24.4476 17.1712 25.075 17.0262 25.5958 16.7362C26.1225 16.4461 26.522 16.0674 26.7943 15.5998C27.0725 15.1263 27.2116 14.6203 27.2116 14.0817V12.3239C27.1169 12.4186 26.9334 12.5073 26.6611 12.5902C26.3948 12.6671 26.09 12.7352 25.7467 12.7944C25.4034 12.8477 25.069 12.898 24.7435 12.9453C24.418 12.9867 24.1457 13.0223 23.9268 13.0518C23.4118 13.117 22.9413 13.2264 22.5152 13.3803C22.095 13.5342 21.7576 13.7562 21.5031 14.0462C21.2545 14.3303 21.1302 14.709 21.1302 15.1825C21.1302 15.8395 21.3729 16.3366 21.8582 16.674C22.3435 17.0054 22.962 17.1712 23.7137 17.1712ZM39.767 5.36364V7.49432H32.3185V5.36364H39.767ZM34.3161 2.09659H36.9705V14.9961C36.9705 15.511 37.0475 15.8987 37.2013 16.1591C37.3552 16.4136 37.5535 16.5882 37.7962 16.6829C38.0447 16.7717 38.314 16.8161 38.604 16.8161C38.8171 16.8161 39.0036 16.8013 39.1634 16.7717C39.3232 16.7421 39.4474 16.7184 39.5362 16.7006L40.0156 18.8935C39.8617 18.9527 39.6428 19.0118 39.3587 19.071C39.0746 19.1361 38.7195 19.1716 38.2933 19.1776C37.5949 19.1894 36.9439 19.0651 36.3402 18.8047C35.7365 18.5443 35.2482 18.1418 34.8754 17.5973C34.5025 17.0528 34.3161 16.3692 34.3161 15.5465V2.09659ZM46.6718 19.3018C45.8077 19.3018 45.0264 19.142 44.328 18.8224C43.6296 18.4969 43.0763 18.0264 42.6679 17.4109C42.2654 16.7953 42.0642 16.0407 42.0642 15.147C42.0642 14.3776 42.2122 13.7443 42.5081 13.2472C42.804 12.75 43.2035 12.3564 43.7066 12.0664C44.2097 11.7764 44.7719 11.5574 45.3934 11.4094C46.0148 11.2615 46.6481 11.149 47.2932 11.0721C48.11 10.9774 48.7729 10.9004 49.2819 10.8413C49.7909 10.7762 50.1608 10.6726 50.3916 10.5305C50.6224 10.3885 50.7378 10.1577 50.7378 9.83807V9.77592C50.7378 9.00059 50.5189 8.39986 50.0809 7.97372C49.6488 7.54758 49.0037 7.33452 48.1455 7.33452C47.2518 7.33452 46.5475 7.53279 46.0326 7.92933C45.5236 8.31996 45.1714 8.75497 44.9761 9.23438L42.4814 8.66619C42.7774 7.83759 43.2094 7.1688 43.7776 6.6598C44.3517 6.14489 45.0116 5.77202 45.7574 5.54119C46.5031 5.30445 47.2873 5.18608 48.11 5.18608C48.6545 5.18608 49.2316 5.25118 49.8412 5.38139C50.4567 5.50568 51.0308 5.73651 51.5635 6.07386C52.1021 6.41122 52.543 6.89358 52.8863 7.52095C53.2296 8.1424 53.4012 8.95028 53.4012 9.9446V19H50.8089V17.1357H50.7023C50.5307 17.4789 50.2732 17.8163 49.93 18.1477C49.5867 18.4792 49.1457 18.7544 48.6072 18.9734C48.0686 19.1924 47.4234 19.3018 46.6718 19.3018ZM47.2488 17.1712C47.9827 17.1712 48.6101 17.0262 49.1309 16.7362C49.6577 16.4461 50.0572 16.0674 50.3295 15.5998C50.6076 15.1263 50.7467 14.6203 50.7467 14.0817V12.3239C50.652 12.4186 50.4685 12.5073 50.1963 12.5902C49.93 12.6671 49.6251 12.7352 49.2819 12.7944C48.9386 12.8477 48.6042 12.898 48.2787 12.9453C47.9532 12.9867 47.6809 13.0223 47.4619 13.0518C46.947 13.117 46.4765 13.2264 46.0503 13.3803C45.6301 13.5342 45.2928 13.7562 45.0383 14.0462C44.7897 14.3303 44.6654 14.709 44.6654 15.1825C44.6654 15.8395 44.9081 16.3366 45.3934 16.674C45.8787 17.0054 46.4972 17.1712 47.2488 17.1712ZM59.5913 0.818181V19H56.9368V0.818181H59.5913ZM68.9063 19.2752C67.6279 19.2752 66.5123 18.9822 65.5594 18.3963C64.6065 17.8104 63.8667 16.9906 63.3399 15.9371C62.8132 14.8836 62.5498 13.6526 62.5498 12.244C62.5498 10.8294 62.8132 9.59245 63.3399 8.53303C63.8667 7.4736 64.6065 6.65092 65.5594 6.06499C66.5123 5.47905 67.6279 5.18608 68.9063 5.18608C70.1847 5.18608 71.3004 5.47905 72.2533 6.06499C73.2062 6.65092 73.946 7.4736 74.4727 8.53303C74.9995 9.59245 75.2629 10.8294 75.2629 12.244C75.2629 13.6526 74.9995 14.8836 74.4727 15.9371C73.946 16.9906 73.2062 17.8104 72.2533 18.3963C71.3004 18.9822 70.1847 19.2752 68.9063 19.2752ZM68.9152 17.0469C69.7438 17.0469 70.4304 16.8279 70.9749 16.3899C71.5194 15.9519 71.9218 15.369 72.1823 14.641C72.4486 13.913 72.5818 13.111 72.5818 12.2351C72.5818 11.3651 72.4486 10.5661 72.1823 9.83807C71.9218 9.10417 71.5194 8.51527 70.9749 8.07138C70.4304 7.62749 69.7438 7.40554 68.9152 7.40554C68.0807 7.40554 67.3882 7.62749 66.8378 8.07138C66.2933 8.51527 65.8879 9.10417 65.6215 9.83807C65.3611 10.5661 65.2309 11.3651 65.2309 12.2351C65.2309 13.111 65.3611 13.913 65.6215 14.641C65.8879 15.369 66.2933 15.9519 66.8378 16.3899C67.3882 16.8279 68.0807 17.0469 68.9152 17.0469ZM83.9432 24.3977C82.8601 24.3977 81.9279 24.2557 81.1467 23.9716C80.3713 23.6875 79.738 23.3117 79.2468 22.8441C78.7556 22.3765 78.3886 21.8646 78.146 21.3082L80.4276 20.3672C80.5874 20.6276 80.8004 20.9028 81.0668 21.1928C81.339 21.4888 81.706 21.7403 82.1676 21.9474C82.6352 22.1546 83.2359 22.2582 83.9698 22.2582C84.976 22.2582 85.8075 22.0125 86.4645 21.5213C87.1214 21.036 87.4499 20.2607 87.4499 19.1953V16.5142H87.2812C87.1214 16.8042 86.8906 17.1268 86.5888 17.4819C86.2929 17.837 85.8845 18.1448 85.3636 18.4052C84.8428 18.6656 84.1651 18.7958 83.3306 18.7958C82.2534 18.7958 81.2828 18.5443 80.4187 18.0412C79.5605 17.5322 78.8799 16.7835 78.3768 15.7951C77.8796 14.8008 77.631 13.5786 77.631 12.1286C77.631 10.6785 77.8767 9.43561 78.3679 8.39986C78.8651 7.36411 79.5457 6.57102 80.4098 6.0206C81.2739 5.46425 82.2534 5.18608 83.3484 5.18608C84.1947 5.18608 84.8783 5.32812 85.3991 5.61222C85.92 5.89039 86.3254 6.21591 86.6154 6.58878C86.9113 6.96165 87.1392 7.29013 87.299 7.57422H87.4943V5.36364H90.0955V19.3018C90.0955 20.4737 89.8233 21.4355 89.2788 22.1871C88.7343 22.9388 87.9974 23.4951 87.0682 23.8562C86.1449 24.2172 85.1032 24.3977 83.9432 24.3977ZM83.9165 16.5941C84.68 16.5941 85.3252 16.4165 85.8519 16.0614C86.3846 15.7004 86.7871 15.1855 87.0593 14.5167C87.3375 13.842 87.4766 13.0341 87.4766 12.093C87.4766 11.1757 87.3404 10.3678 87.0682 9.66939C86.7959 8.971 86.3964 8.42649 85.8697 8.03587C85.3429 7.63932 84.6919 7.44105 83.9165 7.44105C83.1175 7.44105 82.4517 7.6482 81.919 8.0625C81.3864 8.47088 80.9839 9.02722 80.7116 9.73153C80.4453 10.4358 80.3121 11.223 80.3121 12.093C80.3121 12.9867 80.4483 13.771 80.7205 14.4457C80.9928 15.1204 81.3952 15.6471 81.9279 16.0259C82.4665 16.4047 83.1294 16.5941 83.9165 16.5941Z" fill="#878787"/>
</svg>
