<svg width="42" height="25" viewBox="0 0 42 25" fill="none" xmlns="http://www.w3.org/2000/svg">
<path d="M0.997514 19V0.818181H12.2724V3.17969H3.74077V8.71946H11.4645V11.0721H3.74077V19H0.997514ZM19.3525 19.3018C18.4883 19.3018 17.7071 19.142 17.0087 18.8224C16.3103 18.4969 15.7569 18.0264 15.3485 17.4109C14.9461 16.7953 14.7449 16.0407 14.7449 15.147C14.7449 14.3776 14.8928 13.7443 15.1887 13.2472C15.4847 12.75 15.8842 12.3564 16.3873 12.0664C16.8903 11.7764 17.4526 11.5574 18.074 11.4094C18.6955 11.2615 19.3288 11.149 19.9739 11.0721C20.7907 10.9774 21.4535 10.9004 21.9625 10.8413C22.4715 10.7762 22.8414 10.6726 23.0723 10.5305C23.3031 10.3885 23.4185 10.1577 23.4185 9.83807V9.77592C23.4185 9.00059 23.1995 8.39986 22.7615 7.97372C22.3295 7.54758 21.6844 7.33452 20.8262 7.33452C19.9325 7.33452 19.2282 7.53279 18.7132 7.92933C18.2042 8.31996 17.8521 8.75497 17.6568 9.23438L15.1621 8.66619C15.458 7.83759 15.8901 7.1688 16.4583 6.6598C17.0324 6.14489 17.6923 5.77202 18.438 5.54119C19.1838 5.30445 19.968 5.18608 20.7907 5.18608C21.3352 5.18608 21.9122 5.25118 22.5218 5.38139C23.1374 5.50568 23.7115 5.73651 24.2441 6.07386C24.7827 6.41122 25.2237 6.89358 25.5669 7.52095C25.9102 8.1424 26.0819 8.95028 26.0819 9.9446V19H23.4895V17.1357H23.383C23.2114 17.4789 22.9539 17.8163 22.6106 18.1477C22.2673 18.4792 21.8264 18.7544 21.2878 18.9734C20.7492 19.1924 20.1041 19.3018 19.3525 19.3018ZM19.9295 17.1712C20.6634 17.1712 21.2908 17.0262 21.8116 16.7362C22.3384 16.4461 22.7379 16.0674 23.0101 15.5998C23.2883 15.1263 23.4274 14.6203 23.4274 14.0817V12.3239C23.3327 12.4186 23.1492 12.5073 22.877 12.5902C22.6106 12.6671 22.3058 12.7352 21.9625 12.7944C21.6193 12.8477 21.2849 12.898 20.9593 12.9453C20.6338 12.9867 20.3616 13.0223 20.1426 13.0518C19.6277 13.117 19.1571 13.2264 18.731 13.3803C18.3108 13.5342 17.9734 13.7562 17.7189 14.0462C17.4703 14.3303 17.3461 14.709 17.3461 15.1825C17.3461 15.8395 17.5887 16.3366 18.074 16.674C18.5594 17.0054 19.1779 17.1712 19.9295 17.1712ZM38.8238 24.1136V16.8782H38.664C38.5042 17.1682 38.2733 17.4996 37.9715 17.8725C37.6756 18.2454 37.2672 18.5709 36.7464 18.8491C36.2255 19.1272 35.5508 19.2663 34.7222 19.2663C33.6214 19.2663 32.6389 18.9852 31.7748 18.4229C30.9166 17.8548 30.2419 17.0469 29.7506 15.9993C29.2653 14.9458 29.0226 13.6822 29.0226 12.2085C29.0226 10.7347 29.2683 9.47408 29.7595 8.42649C30.2567 7.37891 30.9373 6.57694 31.8014 6.0206C32.6655 5.46425 33.645 5.18608 34.74 5.18608C35.5863 5.18608 36.267 5.32812 36.7819 5.61222C37.3027 5.89039 37.7052 6.21591 37.9893 6.58878C38.2793 6.96165 38.5042 7.29013 38.664 7.57422H38.8859V5.36364H41.4782V24.1136H38.8238ZM35.3081 17.0025C36.0716 17.0025 36.7168 16.8013 37.2435 16.3988C37.7762 15.9904 38.1787 15.4252 38.4509 14.7031C38.7291 13.9811 38.8682 13.1406 38.8682 12.1818C38.8682 11.2348 38.732 10.4062 38.4598 9.69602C38.1875 8.9858 37.788 8.43241 37.2613 8.03587C36.7345 7.63932 36.0835 7.44105 35.3081 7.44105C34.5091 7.44105 33.8433 7.6482 33.3106 8.0625C32.778 8.4768 32.3755 9.04202 32.1032 9.75817C31.8369 10.4743 31.7037 11.2822 31.7037 12.1818C31.7037 13.0933 31.8399 13.913 32.1121 14.641C32.3844 15.369 32.7868 15.946 33.3195 16.3722C33.8581 16.7924 34.521 17.0025 35.3081 17.0025Z" fill="#878787"/>
</svg>
