<svg width="92" height="25" viewBox="0 0 92 25" fill="none" xmlns="http://www.w3.org/2000/svg">
<path d="M5.55753 19L0.514915 0.818181H3.40021L6.94247 14.8984H7.11115L10.7955 0.818181H13.6541L17.3384 14.9073H17.5071L21.0405 0.818181H23.9347L18.8832 19H16.1222L12.2958 5.38139H12.1538L8.32741 19H5.55753ZM28.8774 10.9034V19H26.2229V0.818181H28.8419V7.5831H29.0106C29.3302 6.84919 29.8184 6.26622 30.4754 5.83416C31.1324 5.40211 31.9906 5.18608 33.05 5.18608C33.9851 5.18608 34.8019 5.37843 35.5003 5.76314C36.2046 6.14785 36.7491 6.72195 37.1338 7.48544C37.5244 8.24302 37.7197 9.18999 37.7197 10.3263V19H35.0653V10.646C35.0653 9.64571 34.8078 8.87038 34.2929 8.31996C33.778 7.76361 33.0618 7.48544 32.1444 7.48544C31.5171 7.48544 30.9548 7.61861 30.4577 7.88494C29.9664 8.15128 29.5787 8.5419 29.2947 9.05682C29.0165 9.56581 28.8774 10.1813 28.8774 10.9034ZM42.4516 24.1136C42.0551 24.1136 41.694 24.0811 41.3685 24.016C41.043 23.9568 40.8003 23.8917 40.6405 23.8207L41.2797 21.6456C41.7651 21.7758 42.1971 21.832 42.5759 21.8143C42.9547 21.7965 43.2891 21.6545 43.5791 21.3881C43.875 21.1218 44.1354 20.6868 44.3604 20.0831L44.6888 19.1776L39.6995 5.36364H42.5404L45.9939 15.946H46.1359L49.5894 5.36364H52.4392L46.8195 20.82C46.5591 21.5302 46.2277 22.1309 45.8252 22.6222C45.4227 23.1193 44.9433 23.4922 44.387 23.7408C43.8306 23.9893 43.1855 24.1136 42.4516 24.1136ZM76.4382 0.818181V19H73.9169L64.6751 5.66548H64.5064V19H61.7631V0.818181H64.3022L73.5529 14.1705H73.7216V0.818181H76.4382ZM81.9047 24.1136C81.5082 24.1136 81.1472 24.0811 80.8216 24.016C80.4961 23.9568 80.2535 23.8917 80.0937 23.8207L80.7329 21.6456C81.2182 21.7758 81.6502 21.832 82.029 21.8143C82.4078 21.7965 82.7422 21.6545 83.0322 21.3881C83.3282 21.1218 83.5886 20.6868 83.8135 20.0831L84.142 19.1776L79.1526 5.36364H81.9935L85.447 15.946H85.589L89.0425 5.36364H91.8923L86.2726 20.82C86.0122 21.5302 85.6808 22.1309 85.2783 22.6222C84.8759 23.1193 84.3965 23.4922 83.8401 23.7408C83.2838 23.9893 82.6386 24.1136 81.9047 24.1136Z" fill="#878787"/>
</svg>
