<svg width="129" height="20" viewBox="0 0 129 20" fill="none" xmlns="http://www.w3.org/2000/svg">
<path d="M16.0987 6.73082H13.3288C13.2223 6.13897 13.024 5.61813 12.734 5.16832C12.444 4.71851 12.0889 4.33677 11.6687 4.02308C11.2485 3.7094 10.7779 3.47266 10.2571 3.31285C9.74219 3.15305 9.19472 3.07315 8.6147 3.07315C7.56712 3.07315 6.62902 3.33653 5.80043 3.86328C4.97775 4.39003 4.3267 5.16241 3.8473 6.1804C3.37382 7.19839 3.13707 8.44129 3.13707 9.90909C3.13707 11.3887 3.37382 12.6375 3.8473 13.6555C4.3267 14.6735 4.98071 15.4429 5.8093 15.9638C6.6379 16.4846 7.57008 16.745 8.60582 16.745C9.17992 16.745 9.72443 16.6681 10.2393 16.5142C10.7602 16.3544 11.2307 16.1206 11.6509 15.8129C12.0711 15.5051 12.4263 15.1293 12.7163 14.6854C13.0122 14.2356 13.2164 13.7206 13.3288 13.1406L16.0987 13.1495C15.9508 14.0432 15.6637 14.8659 15.2376 15.6175C14.8174 16.3633 14.2758 17.0084 13.6129 17.5529C12.956 18.0915 12.2043 18.5088 11.358 18.8047C10.5116 19.1006 9.58831 19.2486 8.58807 19.2486C7.01373 19.2486 5.61103 18.8757 4.37997 18.13C3.14891 17.3783 2.17827 16.3041 1.46804 14.9073C0.763731 13.5105 0.411577 11.8445 0.411577 9.90909C0.411577 7.9678 0.76669 6.30173 1.47692 4.91087C2.18714 3.51409 3.15779 2.44283 4.38885 1.69709C5.61991 0.94543 7.01965 0.569602 8.58807 0.569602C9.55279 0.569602 10.4524 0.708688 11.2869 0.986861C12.1274 1.25911 12.882 1.66158 13.5508 2.19425C14.2196 2.721 14.773 3.36612 15.2109 4.12962C15.6489 4.88719 15.9448 5.75426 16.0987 6.73082ZM27.8064 13.3448V5.36364H30.4697V19H27.8596V16.6385H27.7176C27.4039 17.3665 26.9008 17.9731 26.2084 18.4585C25.5218 18.9379 24.6666 19.1776 23.6427 19.1776C22.7667 19.1776 21.9914 18.9852 21.3167 18.6005C20.6479 18.2099 20.1211 17.6328 19.7364 16.8693C19.3576 16.1058 19.1682 15.1618 19.1682 14.0373V5.36364H21.8227V13.7177C21.8227 14.6469 22.0802 15.3867 22.5951 15.9371C23.11 16.4876 23.7788 16.7628 24.6015 16.7628C25.0986 16.7628 25.5928 16.6385 26.0841 16.3899C26.5812 16.1413 26.9926 15.7655 27.3181 15.2624C27.6495 14.7594 27.8123 14.1201 27.8064 13.3448ZM44.2548 8.69283L41.8489 9.11896C41.7483 8.8112 41.5885 8.51823 41.3695 8.24006C41.1564 7.96188 40.8664 7.73402 40.4995 7.55646C40.1325 7.37891 39.6738 7.29013 39.1234 7.29013C38.3717 7.29013 37.7444 7.45881 37.2413 7.79616C36.7382 8.1276 36.4867 8.5567 36.4867 9.08345C36.4867 9.53918 36.6554 9.90613 36.9927 10.1843C37.3301 10.4625 37.8746 10.6903 38.6262 10.8679L40.7924 11.3651C42.0472 11.6551 42.9823 12.1019 43.5978 12.7056C44.2134 13.3093 44.5211 14.0935 44.5211 15.0582C44.5211 15.875 44.2844 16.603 43.8109 17.2422C43.3433 17.8755 42.6893 18.3726 41.8489 18.7337C41.0144 19.0947 40.0467 19.2752 38.9458 19.2752C37.4189 19.2752 36.173 18.9497 35.2083 18.2987C34.2435 17.6417 33.6517 16.7095 33.4327 15.5021L35.9984 15.1115C36.1582 15.7803 36.4867 16.2863 36.9838 16.6296C37.481 16.967 38.1291 17.1357 38.9281 17.1357C39.7981 17.1357 40.4935 16.9551 41.0144 16.5941C41.5352 16.2272 41.7956 15.7803 41.7956 15.2536C41.7956 14.8274 41.6358 14.4693 41.3162 14.1793C41.0025 13.8893 40.5202 13.6703 39.8691 13.5224L37.5609 13.0163C36.2884 12.7263 35.3474 12.2647 34.7377 11.6314C34.1341 10.9981 33.8322 10.1961 33.8322 9.2255C33.8322 8.42057 34.0571 7.71626 34.5069 7.11257C34.9567 6.50888 35.5782 6.03835 36.3713 5.70099C37.1644 5.35772 38.0729 5.18608 39.0968 5.18608C40.5705 5.18608 41.7305 5.50568 42.5769 6.14489C43.4232 6.77817 43.9825 7.62749 44.2548 8.69283ZM53.8051 5.36364V7.49432H46.3566V5.36364H53.8051ZM48.3541 2.09659H51.0086V14.9961C51.0086 15.511 51.0856 15.8987 51.2394 16.1591C51.3933 16.4136 51.5916 16.5882 51.8343 16.6829C52.0828 16.7717 52.3521 16.8161 52.6421 16.8161C52.8552 16.8161 53.0416 16.8013 53.2014 16.7717C53.3612 16.7421 53.4855 16.7184 53.5743 16.7006L54.0537 18.8935C53.8998 18.9527 53.6808 19.0118 53.3968 19.071C53.1127 19.1361 52.7575 19.1716 52.3314 19.1776C51.633 19.1894 50.982 19.0651 50.3783 18.8047C49.7746 18.5443 49.2863 18.1418 48.9134 17.5973C48.5406 17.0528 48.3541 16.3692 48.3541 15.5465V2.09659ZM62.339 19.2752C61.0605 19.2752 59.9449 18.9822 58.992 18.3963C58.0391 17.8104 57.2993 16.9906 56.7725 15.9371C56.2458 14.8836 55.9824 13.6526 55.9824 12.244C55.9824 10.8294 56.2458 9.59245 56.7725 8.53303C57.2993 7.4736 58.0391 6.65092 58.992 6.06499C59.9449 5.47905 61.0605 5.18608 62.339 5.18608C63.6174 5.18608 64.733 5.47905 65.6859 6.06499C66.6388 6.65092 67.3786 7.4736 67.9054 8.53303C68.4321 9.59245 68.6955 10.8294 68.6955 12.244C68.6955 13.6526 68.4321 14.8836 67.9054 15.9371C67.3786 16.9906 66.6388 17.8104 65.6859 18.3963C64.733 18.9822 63.6174 19.2752 62.339 19.2752ZM62.3478 17.0469C63.1764 17.0469 63.863 16.8279 64.4075 16.3899C64.952 15.9519 65.3545 15.369 65.6149 14.641C65.8812 13.913 66.0144 13.111 66.0144 12.2351C66.0144 11.3651 65.8812 10.5661 65.6149 9.83807C65.3545 9.10417 64.952 8.51527 64.4075 8.07138C63.863 7.62749 63.1764 7.40554 62.3478 7.40554C61.5133 7.40554 60.8208 7.62749 60.2704 8.07138C59.7259 8.51527 59.3205 9.10417 59.0542 9.83807C58.7937 10.5661 58.6635 11.3651 58.6635 12.2351C58.6635 13.111 58.7937 13.913 59.0542 14.641C59.3205 15.369 59.7259 15.9519 60.2704 16.3899C60.8208 16.8279 61.5133 17.0469 62.3478 17.0469ZM71.6585 19V5.36364H74.2064V7.5831H74.3751C74.6592 6.83144 75.1238 6.2455 75.7689 5.82528C76.414 5.39915 77.1864 5.18608 78.086 5.18608C78.9975 5.18608 79.761 5.39915 80.3765 5.82528C80.998 6.25142 81.4566 6.83736 81.7526 7.5831H81.8946C82.2201 6.85511 82.738 6.27509 83.4482 5.84304C84.1585 5.40507 85.0048 5.18608 85.9873 5.18608C87.2243 5.18608 88.2334 5.57375 89.0146 6.34908C89.8018 7.12441 90.1954 8.29332 90.1954 9.85582V19H87.5409V10.1044C87.5409 9.18111 87.2894 8.51231 86.7863 8.09801C86.2832 7.68371 85.6825 7.47656 84.9841 7.47656C84.12 7.47656 83.4482 7.7429 82.9688 8.27557C82.4894 8.80232 82.2497 9.48 82.2497 10.3086V19H79.6041V9.93572C79.6041 9.1959 79.3733 8.60109 78.9117 8.15128C78.45 7.70147 77.8493 7.47656 77.1095 7.47656C76.6064 7.47656 76.1418 7.60973 75.7156 7.87606C75.2954 8.13648 74.9551 8.50047 74.6947 8.96804C74.4402 9.43561 74.3129 9.97715 74.3129 10.5927V19H71.6585ZM99.6303 19.2752C98.2868 19.2752 97.1297 18.9882 96.1591 18.4141C95.1944 17.834 94.4486 17.0202 93.9219 15.9727C93.401 14.9192 93.1406 13.6851 93.1406 12.2706C93.1406 10.8738 93.401 9.64276 93.9219 8.57741C94.4486 7.51207 95.1825 6.68052 96.1236 6.08274C97.0705 5.48497 98.1773 5.18608 99.4439 5.18608C100.213 5.18608 100.959 5.31333 101.681 5.56783C102.403 5.82232 103.051 6.22183 103.625 6.76634C104.199 7.31084 104.652 8.01811 104.984 8.88814C105.315 9.75225 105.481 10.8028 105.481 12.0398V12.9808H94.641V10.9922H102.88C102.88 10.2938 102.738 9.67531 102.453 9.13672C102.169 8.59221 101.77 8.16312 101.255 7.84943C100.746 7.53575 100.148 7.37891 99.4616 7.37891C98.7159 7.37891 98.0649 7.56238 97.5085 7.92933C96.9581 8.29036 96.532 8.76385 96.2301 9.34979C95.9342 9.92981 95.7862 10.5601 95.7862 11.2408V12.7944C95.7862 13.7058 95.946 14.4812 96.2656 15.1204C96.5911 15.7596 97.0439 16.2479 97.6239 16.5852C98.204 16.9167 98.8816 17.0824 99.657 17.0824C100.16 17.0824 100.619 17.0114 101.033 16.8693C101.447 16.7214 101.805 16.5024 102.107 16.2124C102.409 15.9223 102.64 15.5643 102.8 15.1381L105.312 15.5909C105.111 16.3307 104.75 16.9788 104.229 17.5352C103.714 18.0856 103.066 18.5147 102.285 18.8224C101.509 19.1243 100.625 19.2752 99.6303 19.2752ZM108.426 19V5.36364H110.992V7.52983H111.134C111.382 6.79593 111.82 6.21887 112.448 5.79865C113.081 5.37251 113.797 5.15945 114.596 5.15945C114.762 5.15945 114.957 5.16536 115.182 5.1772C115.413 5.18904 115.593 5.20383 115.724 5.22159V7.76065C115.617 7.73106 115.428 7.69851 115.155 7.663C114.883 7.62157 114.611 7.60085 114.339 7.60085C113.711 7.60085 113.152 7.73402 112.661 8.00035C112.175 8.26077 111.791 8.62476 111.507 9.09233C111.223 9.55398 111.081 10.0807 111.081 10.6726V19H108.426ZM128.239 8.69283L125.833 9.11896C125.733 8.8112 125.573 8.51823 125.354 8.24006C125.141 7.96188 124.851 7.73402 124.484 7.55646C124.117 7.37891 123.658 7.29013 123.108 7.29013C122.356 7.29013 121.729 7.45881 121.226 7.79616C120.723 8.1276 120.471 8.5567 120.471 9.08345C120.471 9.53918 120.64 9.90613 120.977 10.1843C121.314 10.4625 121.859 10.6903 122.611 10.8679L124.777 11.3651C126.032 11.6551 126.967 12.1019 127.582 12.7056C128.198 13.3093 128.506 14.0935 128.506 15.0582C128.506 15.875 128.269 16.603 127.795 17.2422C127.328 17.8755 126.674 18.3726 125.833 18.7337C124.999 19.0947 124.031 19.2752 122.93 19.2752C121.403 19.2752 120.157 18.9497 119.193 18.2987C118.228 17.6417 117.636 16.7095 117.417 15.5021L119.983 15.1115C120.143 15.7803 120.471 16.2863 120.968 16.6296C121.465 16.967 122.113 17.1357 122.912 17.1357C123.782 17.1357 124.478 16.9551 124.999 16.5941C125.52 16.2272 125.78 15.7803 125.78 15.2536C125.78 14.8274 125.62 14.4693 125.301 14.1793C124.987 13.8893 124.505 13.6703 123.854 13.5224L121.545 13.0163C120.273 12.7263 119.332 12.2647 118.722 11.6314C118.118 10.9981 117.817 10.1961 117.817 9.2255C117.817 8.42057 118.041 7.71626 118.491 7.11257C118.941 6.50888 119.563 6.03835 120.356 5.70099C121.149 5.35772 122.057 5.18608 123.081 5.18608C124.555 5.18608 125.715 5.50568 126.561 6.14489C127.408 6.77817 127.967 7.62749 128.239 8.69283Z" fill="#878787"/>
</svg>
