<svg width="75" height="20" viewBox="0 0 75 20" fill="none" xmlns="http://www.w3.org/2000/svg">
<path d="M0.580256 19V0.818181H4.42436V15.8306H12.2191V19H0.580256ZM30.7649 9.90909C30.7649 11.8918 30.3891 13.5786 29.6374 14.9695C28.8917 16.3603 27.8737 17.4227 26.5835 18.1566C25.2991 18.8846 23.855 19.2486 22.2511 19.2486C20.6353 19.2486 19.1853 18.8816 17.9009 18.1477C16.6166 17.4138 15.6016 16.3514 14.8558 14.9606C14.1101 13.5697 13.7372 11.8859 13.7372 9.90909C13.7372 7.92637 14.1101 6.23958 14.8558 4.84872C15.6016 3.45786 16.6166 2.39844 17.9009 1.67045C19.1853 0.936553 20.6353 0.569602 22.2511 0.569602C23.855 0.569602 25.2991 0.936553 26.5835 1.67045C27.8737 2.39844 28.8917 3.45786 29.6374 4.84872C30.3891 6.23958 30.7649 7.92637 30.7649 9.90909ZM26.8675 9.90909C26.8675 8.62476 26.6752 7.54167 26.2905 6.6598C25.9117 5.77794 25.3761 5.10914 24.6836 4.65341C23.9911 4.19768 23.1803 3.96982 22.2511 3.96982C21.3219 3.96982 20.511 4.19768 19.8185 4.65341C19.1261 5.10914 18.5875 5.77794 18.2028 6.6598C17.824 7.54167 17.6346 8.62476 17.6346 9.90909C17.6346 11.1934 17.824 12.2765 18.2028 13.1584C18.5875 14.0402 19.1261 14.709 19.8185 15.1648C20.511 15.6205 21.3219 15.8484 22.2511 15.8484C23.1803 15.8484 23.9911 15.6205 24.6836 15.1648C25.3761 14.709 25.9117 14.0402 26.2905 13.1584C26.6752 12.2765 26.8675 11.1934 26.8675 9.90909ZM45.6686 6.69531C45.5443 6.26326 45.3697 5.88151 45.1448 5.55007C44.9199 5.21271 44.6447 4.92862 44.3192 4.6978C43.9996 4.46106 43.6326 4.28054 43.2183 4.15625C42.8099 4.03196 42.3572 3.96982 41.86 3.96982C40.9308 3.96982 40.114 4.20064 39.4097 4.66229C38.7113 5.12393 38.1668 5.79569 37.7762 6.67756C37.3856 7.5535 37.1903 8.62476 37.1903 9.89134C37.1903 11.1579 37.3826 12.2351 37.7673 13.1229C38.152 14.0107 38.6965 14.6883 39.4008 15.1559C40.1051 15.6175 40.9367 15.8484 41.8955 15.8484C42.7655 15.8484 43.5083 15.6945 44.1238 15.3867C44.7453 15.073 45.2188 14.6321 45.5443 14.0639C45.8757 13.4957 46.0415 12.824 46.0415 12.0487L46.8227 12.1641H42.1352V9.26989H49.7435V11.5604C49.7435 13.1584 49.4062 14.5315 48.7314 15.6797C48.0567 16.822 47.1275 17.7038 45.9438 18.3253C44.7601 18.9408 43.4047 19.2486 41.8778 19.2486C40.1732 19.2486 38.6758 18.8728 37.3856 18.1211C36.0953 17.3635 35.0892 16.2893 34.3671 14.8984C33.651 13.5017 33.2929 11.8445 33.2929 9.92685C33.2929 8.45312 33.5059 7.1392 33.9321 5.98508C34.3641 4.82505 34.9678 3.84257 35.7432 3.03764C36.5185 2.23272 37.4211 1.62015 38.4509 1.19993C39.4807 0.77971 40.5964 0.569602 41.7979 0.569602C42.8277 0.569602 43.7865 0.720525 44.6743 1.02237C45.5621 1.3183 46.3492 1.73852 47.0358 2.28303C47.7282 2.82753 48.2935 3.47561 48.7314 4.22727C49.1694 4.97301 49.4506 5.79569 49.5748 6.69531H45.6686ZM56.4751 0.818181V19H52.631V0.818181H56.4751ZM74.8456 0.818181V19H71.5253L63.6151 7.55646H63.482V19H59.6379V0.818181H63.0115L70.8595 12.2528H71.0193V0.818181H74.8456Z" fill="#0F025F"/>
</svg>
