<svg width="101" height="20" viewBox="0 0 101 20" fill="none" xmlns="http://www.w3.org/2000/svg">
<path d="M11.4435 6.04723C11.3725 5.33108 11.0677 4.77474 10.5291 4.3782C9.99053 3.98165 9.25959 3.78338 8.33629 3.78338C7.70893 3.78338 7.17921 3.87216 6.74716 4.04972C6.3151 4.22135 5.98366 4.46106 5.75284 4.76882C5.52794 5.07659 5.41548 5.42578 5.41548 5.81641C5.40365 6.14193 5.47171 6.42602 5.61967 6.66868C5.77356 6.91134 5.98366 7.12145 6.25 7.29901C6.51634 7.47064 6.8241 7.62157 7.1733 7.75178C7.52249 7.87607 7.89536 7.9826 8.2919 8.07138L9.92543 8.462C10.7185 8.63956 11.4465 8.8763 12.1094 9.17223C12.7723 9.46816 13.3464 9.83215 13.8317 10.2642C14.317 10.6963 14.6928 11.2053 14.9592 11.7912C15.2314 12.3771 15.3705 13.0489 15.3764 13.8065C15.3705 14.9192 15.0864 15.8839 14.5241 16.7006C13.9678 17.5115 13.1629 18.1418 12.1094 18.5916C11.0618 19.0355 9.79818 19.2575 8.31854 19.2575C6.85073 19.2575 5.57232 19.0326 4.48331 18.5827C3.40021 18.1329 2.55386 17.4671 1.94425 16.5852C1.34055 15.6974 1.02391 14.5996 0.994318 13.2915H4.71413C4.75556 13.9012 4.93016 14.4102 5.23793 14.8185C5.55161 15.221 5.96887 15.5258 6.4897 15.733C7.01645 15.9342 7.61127 16.0348 8.27415 16.0348C8.92519 16.0348 9.49041 15.9401 9.96982 15.7507C10.4551 15.5613 10.831 15.2979 11.0973 14.9606C11.3636 14.6232 11.4968 14.2356 11.4968 13.7976C11.4968 13.3892 11.3755 13.0459 11.1328 12.7678C10.8961 12.4896 10.5469 12.2528 10.0852 12.0575C9.6295 11.8622 9.07019 11.6847 8.40732 11.5249L6.42756 11.0277C4.89465 10.6548 3.6843 10.0719 2.79652 9.27876C1.90874 8.48568 1.4678 7.41738 1.47372 6.07386C1.4678 4.97301 1.76077 4.01124 2.35263 3.18857C2.9504 2.36589 3.77012 1.72372 4.81179 1.26207C5.85346 0.800426 7.03717 0.569602 8.36293 0.569602C9.71236 0.569602 10.8902 0.800426 11.8963 1.26207C12.9084 1.72372 13.6955 2.36589 14.2578 3.18857C14.8201 4.01124 15.1101 4.96413 15.1278 6.04723H11.4435ZM21.8062 0.818181V19H17.9621V0.818181H21.8062ZM37.025 6.69531C36.9007 6.26326 36.7261 5.88151 36.5012 5.55007C36.2763 5.21271 36.0011 4.92862 35.6756 4.6978C35.356 4.46106 34.9891 4.28054 34.5748 4.15625C34.1664 4.03196 33.7136 3.96982 33.2164 3.96982C32.2872 3.96982 31.4705 4.20064 30.7662 4.66229C30.0678 5.12393 29.5233 5.79569 29.1326 6.67756C28.742 7.5535 28.5467 8.62476 28.5467 9.89134C28.5467 11.1579 28.7391 12.2351 29.1238 13.1229C29.5085 14.0107 30.053 14.6883 30.7573 15.1559C31.4616 15.6175 32.2931 15.8484 33.252 15.8484C34.122 15.8484 34.8648 15.6945 35.4803 15.3867C36.1017 15.073 36.5752 14.6321 36.9007 14.0639C37.2322 13.4957 37.3979 12.824 37.3979 12.0487L38.1792 12.1641H33.4917V9.26989H41.1V11.5604C41.1 13.1584 40.7626 14.5315 40.0879 15.6797C39.4132 16.822 38.484 17.7038 37.3002 18.3253C36.1165 18.9408 34.7612 19.2486 33.2342 19.2486C31.5297 19.2486 30.0323 18.8728 28.742 18.1211C27.4518 17.3635 26.4456 16.2893 25.7235 14.8984C25.0074 13.5017 24.6493 11.8445 24.6493 9.92685C24.6493 8.45312 24.8624 7.1392 25.2885 5.98508C25.7206 4.82505 26.3243 3.84257 27.0996 3.03764C27.8749 2.23272 28.7775 1.62015 29.8074 1.19993C30.8372 0.77971 31.9528 0.569602 33.1543 0.569602C34.1841 0.569602 35.1429 0.720525 36.0307 1.02237C36.9185 1.3183 37.7057 1.73852 38.3922 2.28303C39.0847 2.82753 39.6499 3.47561 40.0879 4.22727C40.5259 4.97301 40.807 5.79569 40.9313 6.69531H37.025ZM59.1952 0.818181V19H55.8749L47.9648 7.55646H47.8316V19H43.9875V0.818181H47.3611L55.2091 12.2528H55.3689V0.818181H59.1952ZM79.3879 0.818181H83.232V12.6257C83.232 13.9515 82.9153 15.1115 82.282 16.1058C81.6547 17.1001 80.7758 17.8755 79.6453 18.4318C78.5149 18.9822 77.198 19.2575 75.6947 19.2575C74.1855 19.2575 72.8656 18.9822 71.7352 18.4318C70.6047 17.8755 69.7258 17.1001 69.0985 16.1058C68.4711 15.1115 68.1574 13.9515 68.1574 12.6257V0.818181H72.0015V12.2972C72.0015 12.9897 72.1524 13.6052 72.4543 14.1438C72.762 14.6824 73.1941 15.1056 73.7504 15.4134C74.3068 15.7211 74.9549 15.875 75.6947 15.875C76.4404 15.875 77.0885 15.7211 77.6389 15.4134C78.1953 15.1056 78.6244 14.6824 78.9262 14.1438C79.234 13.6052 79.3879 12.9897 79.3879 12.2972V0.818181ZM86.3947 19V0.818181H93.568C94.947 0.818181 96.1219 1.08156 97.0925 1.60831C98.0632 2.12914 98.803 2.85417 99.312 3.78338C99.8269 4.70668 100.084 5.77202 100.084 6.9794C100.084 8.18679 99.8239 9.25213 99.3031 10.1754C98.7823 11.0987 98.0276 11.8178 97.0392 12.3327C96.0568 12.8477 94.8671 13.1051 93.4703 13.1051H88.8983V10.0245H92.8489C93.5887 10.0245 94.1983 9.89725 94.6777 9.64276C95.1631 9.38234 95.5241 9.02427 95.7608 8.56854C96.0035 8.10689 96.1248 7.57718 96.1248 6.9794C96.1248 6.37571 96.0035 5.84896 95.7608 5.39915C95.5241 4.94342 95.1631 4.59126 94.6777 4.34268C94.1924 4.08819 93.5769 3.96094 92.8311 3.96094H90.2388V19H86.3947Z" fill="#0F025F"/>
</svg>
